# xmcd
#
# Track frame offsets: 
#        151
#        11820
#        19236
#        34778
#        48539
#        60461
#        71420
#        84650
#        102908
#        115850
#        132469
#        147492
#        166550
#        183600
#        198479
#        209880
#        226197
#
# Disc length: 3204 seconds
#
# Revision: 0
# Processed by: cddbd v1.4PL0 Copyright (c) Steve Scherf et al.
# Submitted via: ExactAudioCopy v0.90b4
#
DISCID=f60c8211
DTITLE=Waylon Jennings - Legendary Waylon Jennings Disc 2
DYEAR=2001
DGENRE=Alternative
TTITLE0=Pick Up The Tempo
TTITLE1=Heaven Or Hell
TTITLE2=It's Not Supposed To Be That Way
TTITLE3=If You Could Touch Her At All
TTITLE4=Waymore Blues
TTITLE5=Dreaming My Dreams With You
TTITLE6=Are You Sure Hank Done It This Way
TTITLE7=The Last Letter (Live)
TTITLE8=My Heros Have ALways Been Cowboys
TTITLE9=Slow Moving Outlaws
TTITLE10=Bob Willis Is Still The King (Live)
TTITLE11=Lovin' Her Was Easier (Live)
TTITLE12=Can't You See
TTITLE13=Luckenbach, Texas
TTITLE14=Mammas, Don't Let Your Babies Grow Up To Be Cowboys
TTITLE15=Looking For Suzanne
TTITLE16=Don't You Think This Outlaw Bit's Done Got Out Of Hand
EXTD=
EXTT0=
EXTT1=
EXTT2=
EXTT3=
EXTT4=
EXTT5=
EXTT6=
EXTT7=
EXTT8=
EXTT9=
EXTT10=
EXTT11=
EXTT12=
EXTT13=
EXTT14=
EXTT15=
EXTT16=
PLAYORDER=
